<svg width="18" height="18" viewBox="0 0 18 18" fill="none" xmlns="http://www.w3.org/2000/svg">
<path fill-rule="evenodd" clip-rule="evenodd" d="M9 1.5C6.96312 1.5 6.70813 1.50875 5.90812 1.545C3.18438 1.67 1.67063 3.18125 1.54563 5.9075C1.50875 6.70813 1.5 6.96312 1.5 9C1.5 11.0369 1.50875 11.2925 1.545 12.0925C1.67 14.8162 3.18125 16.33 5.9075 16.455C6.70813 16.4913 6.96312 16.5 9 16.5C11.0369 16.5 11.2925 16.4913 12.0925 16.455C14.8137 16.33 16.3313 14.8187 16.4544 12.0925C16.4913 11.2925 16.5 11.0369 16.5 9C16.5 6.96312 16.4913 6.70813 16.455 5.90812C16.3325 3.18688 14.8194 1.67063 12.0931 1.54563C11.2925 1.50875 11.0369 1.5 9 1.5ZM9 5.14918C6.87313 5.14918 5.14875 6.87355 5.14875 9.00043C5.14875 11.1273 6.87313 12.8523 9 12.8523C11.1269 12.8523 12.8513 11.1279 12.8513 9.00043C12.8513 6.87355 11.1269 5.14918 9 5.14918ZM9 11.4997C7.61938 11.4997 6.5 10.3809 6.5 8.99967C6.5 7.61905 7.61938 6.49967 9 6.49967C10.3806 6.49967 11.5 7.61905 11.5 8.99967C11.5 10.3809 10.3806 11.4997 9 11.4997ZM13.0037 4.09727C12.5062 4.09727 12.1031 4.50039 12.1031 4.99727C12.1031 5.49414 12.5062 5.89727 13.0037 5.89727C13.5006 5.89727 13.9031 5.49414 13.9031 4.99727C13.9031 4.50039 13.5006 4.09727 13.0037 4.09727Z" fill="#969696"/>
</svg>
