<svg width="32" height="32" viewBox="0 0 32 32" fill="none" xmlns="http://www.w3.org/2000/svg">
<g clip-path="url(#clip0_101_5769)">
<g filter="url(#filter0_d_101_5769)">
<path d="M6.66675 28V6.66667C6.66675 5.95942 6.9477 5.28115 7.4478 4.78105C7.94789 4.28095 8.62617 4 9.33341 4H22.6667C23.374 4 24.0523 4.28095 24.5524 4.78105C25.0525 5.28115 25.3334 5.95942 25.3334 6.66667V28L21.3334 25.3333L18.6667 28L16.0001 25.3333L13.3334 28L10.6667 25.3333L6.66675 28Z" fill="white"/>
<path d="M6.66675 28V6.66667C6.66675 5.95942 6.9477 5.28115 7.4478 4.78105C7.94789 4.28095 8.62617 4 9.33341 4H22.6667C23.374 4 24.0523 4.28095 24.5524 4.78105C25.0525 5.28115 25.3334 5.95942 25.3334 6.66667V28L21.3334 25.3333L18.6667 28L16.0001 25.3333L13.3334 28L10.6667 25.3333L6.66675 28Z" stroke="white" stroke-width="2" stroke-linecap="round" stroke-linejoin="round"/>
</g>
<g filter="url(#filter1_d_101_5769)">
<path d="M18.6666 10.6666H15.3333C14.8028 10.6666 14.2941 10.8773 13.919 11.2524C13.544 11.6275 13.3333 12.1362 13.3333 12.6666C13.3333 13.1971 13.544 13.7058 13.919 14.0808C14.2941 14.4559 14.8028 14.6666 15.3333 14.6666H16.6666C17.197 14.6666 17.7057 14.8773 18.0808 15.2524C18.4559 15.6275 18.6666 16.1362 18.6666 16.6666C18.6666 17.1971 18.4559 17.7058 18.0808 18.0808C17.7057 18.4559 17.197 18.6666 16.6666 18.6666H13.3333M15.9999 18.6666V20.6666M15.9999 8.66663V10.6666" stroke="#1BC27A" stroke-width="2" stroke-linecap="round" stroke-linejoin="round" shape-rendering="crispEdges"/>
</g>
</g>
<defs>
<filter id="filter0_d_101_5769" x="3.66675" y="1" width="28.6667" height="34" filterUnits="userSpaceOnUse" color-interpolation-filters="sRGB">
<feFlood flood-opacity="0" result="BackgroundImageFix"/>
<feColorMatrix in="SourceAlpha" type="matrix" values="0 0 0 0 0 0 0 0 0 0 0 0 0 0 0 0 0 0 127 0" result="hardAlpha"/>
<feOffset dx="2" dy="2"/>
<feGaussianBlur stdDeviation="2"/>
<feComposite in2="hardAlpha" operator="out"/>
<feColorMatrix type="matrix" values="0 0 0 0 0.439216 0 0 0 0 0.396078 0 0 0 0 0.941176 0 0 0 0.1 0"/>
<feBlend mode="normal" in2="BackgroundImageFix" result="effect1_dropShadow_101_5769"/>
<feBlend mode="normal" in="SourceGraphic" in2="effect1_dropShadow_101_5769" result="shape"/>
</filter>
<filter id="filter1_d_101_5769" x="10.3333" y="5.66663" width="15.3333" height="22" filterUnits="userSpaceOnUse" color-interpolation-filters="sRGB">
<feFlood flood-opacity="0" result="BackgroundImageFix"/>
<feColorMatrix in="SourceAlpha" type="matrix" values="0 0 0 0 0 0 0 0 0 0 0 0 0 0 0 0 0 0 127 0" result="hardAlpha"/>
<feOffset dx="2" dy="2"/>
<feGaussianBlur stdDeviation="2"/>
<feComposite in2="hardAlpha" operator="out"/>
<feColorMatrix type="matrix" values="0 0 0 0 0.439216 0 0 0 0 0.396078 0 0 0 0 0.941176 0 0 0 0.1 0"/>
<feBlend mode="normal" in2="BackgroundImageFix" result="effect1_dropShadow_101_5769"/>
<feBlend mode="normal" in="SourceGraphic" in2="effect1_dropShadow_101_5769" result="shape"/>
</filter>
<clipPath id="clip0_101_5769">
<rect width="32" height="32" fill="white"/>
</clipPath>
</defs>
</svg>
