<svg width="32" height="32" viewBox="0 0 32 32" fill="none" xmlns="http://www.w3.org/2000/svg">
<g clip-path="url(#clip0_101_5792)">
<g filter="url(#filter0_d_101_5792)">
<path d="M5.33325 10.6667V8.00004C5.33325 7.2928 5.6142 6.61452 6.1143 6.11442C6.6144 5.61433 7.29267 5.33337 7.99992 5.33337H10.6666" stroke="white" stroke-width="2" stroke-linecap="round" stroke-linejoin="round" shape-rendering="crispEdges"/>
</g>
<g filter="url(#filter1_d_101_5792)">
<path d="M5.33325 21.3334V24C5.33325 24.7073 5.6142 25.3856 6.1143 25.8857C6.6144 26.3858 7.29267 26.6667 7.99992 26.6667H10.6666" stroke="white" stroke-width="2" stroke-linecap="round" stroke-linejoin="round" shape-rendering="crispEdges"/>
</g>
<path d="M21.3333 5.33337H23.9999C24.7072 5.33337 25.3854 5.61433 25.8855 6.11442C26.3856 6.61452 26.6666 7.2928 26.6666 8.00004V10.6667" stroke="white" stroke-width="2" stroke-linecap="round" stroke-linejoin="round"/>
<path d="M21.3333 26.6667H23.9999C24.7072 26.6667 25.3854 26.3858 25.8855 25.8857C26.3856 25.3856 26.6666 24.7073 26.6666 24V21.3334" stroke="white" stroke-width="2" stroke-linecap="round" stroke-linejoin="round"/>
<path d="M16.0001 24L11.3334 17.3333C10.8842 16.5213 10.6546 15.6062 10.6672 14.6784C10.6799 13.7505 10.9345 12.842 11.4058 12.0426C11.8771 11.2433 12.5488 10.5807 13.3545 10.1204C14.1602 9.66008 15.0721 9.41797 16.0001 9.41797C16.928 9.41797 17.8399 9.66008 18.6457 10.1204C19.4514 10.5807 20.1231 11.2433 20.5944 12.0426C21.0657 12.842 21.3202 13.7505 21.3329 14.6784C21.3456 15.6062 21.116 16.5213 20.6667 17.3333L16.0001 24Z" fill="white" stroke="white" stroke-width="2" stroke-linecap="round" stroke-linejoin="round"/>
<path d="M16 14.6666V14.68" stroke="#1BC27A" stroke-width="6" stroke-linecap="round" stroke-linejoin="round"/>
</g>
<defs>
<filter id="filter0_d_101_5792" x="2.33325" y="2.33337" width="15.3333" height="15.3334" filterUnits="userSpaceOnUse" color-interpolation-filters="sRGB">
<feFlood flood-opacity="0" result="BackgroundImageFix"/>
<feColorMatrix in="SourceAlpha" type="matrix" values="0 0 0 0 0 0 0 0 0 0 0 0 0 0 0 0 0 0 127 0" result="hardAlpha"/>
<feOffset dx="2" dy="2"/>
<feGaussianBlur stdDeviation="2"/>
<feComposite in2="hardAlpha" operator="out"/>
<feColorMatrix type="matrix" values="0 0 0 0 0.439216 0 0 0 0 0.396078 0 0 0 0 0.941176 0 0 0 0.1 0"/>
<feBlend mode="normal" in2="BackgroundImageFix" result="effect1_dropShadow_101_5792"/>
<feBlend mode="normal" in="SourceGraphic" in2="effect1_dropShadow_101_5792" result="shape"/>
</filter>
<filter id="filter1_d_101_5792" x="2.33325" y="18.3334" width="15.3333" height="15.3334" filterUnits="userSpaceOnUse" color-interpolation-filters="sRGB">
<feFlood flood-opacity="0" result="BackgroundImageFix"/>
<feColorMatrix in="SourceAlpha" type="matrix" values="0 0 0 0 0 0 0 0 0 0 0 0 0 0 0 0 0 0 127 0" result="hardAlpha"/>
<feOffset dx="2" dy="2"/>
<feGaussianBlur stdDeviation="2"/>
<feComposite in2="hardAlpha" operator="out"/>
<feColorMatrix type="matrix" values="0 0 0 0 0.439216 0 0 0 0 0.396078 0 0 0 0 0.941176 0 0 0 0.1 0"/>
<feBlend mode="normal" in2="BackgroundImageFix" result="effect1_dropShadow_101_5792"/>
<feBlend mode="normal" in="SourceGraphic" in2="effect1_dropShadow_101_5792" result="shape"/>
</filter>
<clipPath id="clip0_101_5792">
<rect width="32" height="32" fill="white"/>
</clipPath>
</defs>
</svg>
