<svg width="28" height="28" viewBox="0 0 28 28" fill="none" xmlns="http://www.w3.org/2000/svg">
<path fill-rule="evenodd" clip-rule="evenodd" d="M10.9741 3.37241C11.4068 2.72328 12.1354 2.33337 12.9155 2.33337H15.0847C15.8648 2.33337 16.5933 2.72328 17.0261 3.37241L18.0834 4.95837H22.4584C22.9417 4.95837 23.3334 5.35012 23.3334 5.83337C23.3334 6.31662 22.9417 6.70837 22.4584 6.70837H5.54175C5.0585 6.70837 4.66675 6.31662 4.66675 5.83337C4.66675 5.35012 5.0585 4.95837 5.54175 4.95837H9.91675L10.9741 3.37241ZM17.5001 25.6667H10.5001C7.92275 25.6667 5.83342 23.5774 5.83342 21V8.16671H22.1667V21C22.1667 23.5774 20.0774 25.6667 17.5001 25.6667ZM11.6667 11.9584C12.15 11.9584 12.5417 12.3501 12.5417 12.8334V21C12.5417 21.4833 12.15 21.875 11.6667 21.875C11.1835 21.875 10.7917 21.4833 10.7917 21L10.7917 12.8334C10.7917 12.3501 11.1835 11.9584 11.6667 11.9584ZM16.3334 11.9584C16.8167 11.9584 17.2084 12.3501 17.2084 12.8334V21C17.2084 21.4833 16.8167 21.875 16.3334 21.875C15.8502 21.875 15.4584 21.4833 15.4584 21V12.8334C15.4584 12.3501 15.8502 11.9584 16.3334 11.9584Z" fill="white"/>
</svg>
