<svg width="32" height="32" viewBox="0 0 32 32" fill="none" xmlns="http://www.w3.org/2000/svg">
<g clip-path="url(#clip0_101_5751)">
<path fill-rule="evenodd" clip-rule="evenodd" d="M2.66675 16H5.62964V26.3703C5.62964 27.1562 5.94181 27.9098 6.49747 28.4655C7.05313 29.0211 7.80678 29.3333 8.5926 29.3333H23.4074C24.1932 29.3333 24.9469 29.0211 25.5025 28.4655C26.0582 27.9098 26.3704 27.1562 26.3704 26.3703V16H26.3705H29.3334L16.0001 2.66663L2.66675 16Z" fill="white"/>
<path d="M5.62964 16H6.62964C6.62964 15.4477 6.18192 15 5.62964 15V16ZM2.66675 16L1.95964 15.2929C1.67364 15.5789 1.58809 16.009 1.74287 16.3826C1.89765 16.7563 2.26229 17 2.66675 17L2.66675 16ZM6.49747 28.4655L7.20458 27.7584L6.49747 28.4655ZM25.5025 28.4655L24.7954 27.7584L24.7954 27.7584L25.5025 28.4655ZM26.3704 16V15C25.8181 15 25.3704 15.4477 25.3704 16H26.3704ZM29.3334 16V17C29.7379 17 30.1025 16.7563 30.2573 16.3826C30.4121 16.009 30.3265 15.5789 30.0405 15.2929L29.3334 16ZM16.0001 2.66663L16.7072 1.95952C16.3167 1.56899 15.6835 1.56899 15.293 1.95952L16.0001 2.66663ZM5.62964 15H2.66675V17H5.62964V15ZM4.62964 16V26.3703H6.62964V16H4.62964ZM4.62964 26.3703C4.62964 27.4214 5.04716 28.4294 5.79036 29.1726L7.20458 27.7584C6.83645 27.3902 6.62964 26.8909 6.62964 26.3703H4.62964ZM5.79036 29.1726C6.53356 29.9158 7.54156 30.3333 8.5926 30.3333V28.3333C8.07199 28.3333 7.5727 28.1265 7.20458 27.7584L5.79036 29.1726ZM8.5926 30.3333H23.4074V28.3333H8.5926V30.3333ZM23.4074 30.3333C24.4585 30.3333 25.4665 29.9158 26.2097 29.1726L24.7954 27.7584C24.4273 28.1265 23.928 28.3333 23.4074 28.3333V30.3333ZM26.2097 29.1726C26.9529 28.4294 27.3704 27.4214 27.3704 26.3703H25.3704C25.3704 26.8909 25.1636 27.3902 24.7954 27.7584L26.2097 29.1726ZM27.3704 26.3703V16H25.3704V26.3703H27.3704ZM26.3705 15H26.3704V17H26.3705V15ZM29.3334 15H26.3705V17H29.3334V15ZM15.293 3.37373L28.6263 16.7071L30.0405 15.2929L16.7072 1.95952L15.293 3.37373ZM3.37385 16.7071L16.7072 3.37373L15.293 1.95952L1.95964 15.2929L3.37385 16.7071Z" fill="white"/>
<path d="M12 18.0002L14.6667 20.6668L20 15.3335" stroke="#1BC27A" stroke-width="2" stroke-linecap="round" stroke-linejoin="round"/>
</g>
<defs>
<clipPath id="clip0_101_5751">
<rect width="32" height="32" fill="white"/>
</clipPath>
</defs>
</svg>
