<svg width="20" height="20" viewBox="0 0 20 20" fill="none" xmlns="http://www.w3.org/2000/svg">
<path fill-rule="evenodd" clip-rule="evenodd" d="M12.1583 1.08266C12.4808 0.959717 12.8419 1.12152 12.9649 1.44407L13.9466 4.0197C14.0411 4.26747 13.9689 4.54787 13.7665 4.71924C13.5642 4.89061 13.2758 4.91565 13.0469 4.78171C12.1529 4.25844 11.1124 3.95834 9.99992 3.95834C6.6632 3.95834 3.95825 6.66329 3.95825 10C3.95825 11.1015 4.25245 12.1324 4.76614 13.0204C4.93898 13.3192 4.83687 13.7015 4.53809 13.8743C4.2393 14.0472 3.85697 13.9451 3.68413 13.6463C3.06335 12.5731 2.70825 11.3271 2.70825 10C2.70825 5.97293 5.97284 2.70834 9.99992 2.70834C10.7821 2.70834 11.5361 2.83169 12.2431 3.06008L11.7969 1.88928C11.6739 1.56674 11.8357 1.2056 12.1583 1.08266ZM15.4618 6.12567C15.7605 5.95283 16.1429 6.05493 16.3157 6.35372C16.9365 7.42686 17.2916 8.67291 17.2916 10C17.2916 14.0271 14.027 17.2917 9.99992 17.2917C9.21775 17.2917 8.46374 17.1683 7.7567 16.9399L8.20298 18.1107C8.32592 18.4333 8.16412 18.7944 7.84158 18.9173C7.51904 19.0403 7.1579 18.8785 7.03496 18.5559L6.05318 15.9803C5.95874 15.7325 6.03092 15.4521 6.23326 15.2808C6.4356 15.1094 6.72406 15.0843 6.95291 15.2183C7.84693 15.7416 8.88743 16.0417 9.99992 16.0417C13.3366 16.0417 16.0416 13.3367 16.0416 10C16.0416 8.89852 15.7474 7.86764 15.2337 6.97963C15.0609 6.68084 15.163 6.29851 15.4618 6.12567Z" fill="#1BC27A"/>
</svg>
